<svg xmlns="http://www.w3.org/2000/svg" xmlns:xlink="http://www.w3.org/1999/xlink" width="19.911" height="20" viewBox="0 0 19.911 20"><defs><style>.a{fill:#e0e0e0;}.b{fill:url(#a);}.c{fill:none;opacity:0.08;}.d,.e{fill:#fff;}.d{fill-rule:evenodd;}</style><linearGradient id="a" x1="0.5" y1="1" x2="0.5" gradientUnits="objectBoundingBox"><stop offset="0" stop-color="#20b038"/><stop offset="1" stop-color="#60d66a"/></linearGradient></defs><path class="a" d="M17.01,2.906a9.915,9.915,0,0,0-15.6,11.958L0,20l5.255-1.378a9.907,9.907,0,0,0,4.737,1.206h0A9.914,9.914,0,0,0,17.01,2.906ZM10,18.155h0A8.23,8.23,0,0,1,5.8,17.006l-.3-.178-3.119.818.833-3.04-.2-.312A8.24,8.24,0,1,1,10,18.155Z"/><path class="b" d="M27.875,40.168l1.342-4.9A9.461,9.461,0,1,1,37.415,40h0a9.458,9.458,0,0,1-4.521-1.151l-5.015,1.315Z" transform="translate(-27.42 -20.738)"/><rect class="c" width="11.135" height="10.433" transform="translate(4.424 4.757)"/><path class="d" d="M309.819,323.457c-.183-.408-.377-.416-.551-.423-.143-.006-.306-.006-.469-.006a.9.9,0,0,0-.653.306,2.745,2.745,0,0,0-.857,2.042,4.763,4.763,0,0,0,1,2.532,10.052,10.052,0,0,0,4.183,3.7c2.068.816,2.489.653,2.938.613a2.473,2.473,0,0,0,1.653-1.164,2.046,2.046,0,0,0,.143-1.164c-.061-.1-.224-.163-.469-.286s-1.449-.715-1.673-.8-.388-.122-.551.123-.632.8-.775.96-.286.184-.531.062a6.7,6.7,0,0,1-1.969-1.215,7.376,7.376,0,0,1-1.362-1.7c-.143-.245-.015-.378.108-.5s.245-.286.367-.429a1.678,1.678,0,0,0,.245-.408.451.451,0,0,0-.02-.429C310.513,325.152,310.037,323.941,309.819,323.457Z" transform="translate(-302.272 -317.754)"/><path class="e" d="M23.814,2.987A9.8,9.8,0,0,0,8.39,14.808L7,19.884l5.2-1.362a9.793,9.793,0,0,0,4.683,1.193h0A9.8,9.8,0,0,0,23.814,2.987ZM16.882,18.06h0a8.135,8.135,0,0,1-4.146-1.135l-.3-.176-3.083.808.823-3-.194-.308a8.146,8.146,0,1,1,6.9,3.816Z" transform="translate(-6.886 -0.112)"/></svg>